#tb 0: 1/25
0,          0,          0,        1,   149760, 0xcbda260f
0,          1,          1,        1,   149760, 0xbd8d32a9
0,          2,          2,        1,   149760, 0x39562006
0,          3,          3,        1,   149760, 0xbc62475b
0,          4,          4,        1,   149760, 0x1bf1fb79
